<svg width="32" height="32" fill="none" xmlns="http://www.w3.org/2000/svg"><path opacity=".4" d="M10.2 27.88c-.04 0-.094.027-.134.027a13.341 13.341 0 01-5.987-5.987c0-.04.027-.093.027-.133 1.626.48 3.306.84 4.973 1.12.293 1.68.64 3.346 1.12 4.973zm17.72-5.947c-1.32 2.654-3.52 4.8-6.2 6.094.506-1.694.933-3.4 1.213-5.12a41.71 41.71 0 004.96-1.12c-.013.053.027.106.027.146zm.106-11.653a42.191 42.191 0 00-5.093-1.214 37.22 37.22 0 00-1.213-5.093 13.403 13.403 0 016.306 6.307zM10.2 4.12c-.48 1.627-.826 3.28-1.106 4.96-1.72.267-3.427.693-5.12 1.2 1.293-2.68 3.44-4.88 6.093-6.2.04 0 .093.04.133.04z" fill="#EA3C12"/><path d="M20.653 8.787a41.772 41.772 0 00-9.306 0c.333-1.827.76-3.654 1.36-5.414.026-.107.013-.187.026-.293A13.849 13.849 0 0116 2.667c1.12 0 2.213.16 3.253.413.014.107.014.187.04.293.6 1.773 1.027 3.587 1.36 5.413zM8.787 20.653c-1.84-.333-3.653-.76-5.413-1.36-.107-.026-.187-.013-.294-.026-.253-1.054-.413-2.134-.413-3.267 0-1.12.16-2.213.413-3.253.107-.014.187-.014.294-.04a39.684 39.684 0 015.413-1.36 43.432 43.432 0 000 9.306zM29.333 16c0 1.133-.16 2.213-.413 3.267-.107.013-.187 0-.294.026a40.178 40.178 0 01-5.413 1.36 41.767 41.767 0 000-9.306c1.827.333 3.653.76 5.413 1.36.107.026.187.04.294.04.253 1.053.413 2.133.413 3.253zm-8.68 7.213c-.333 1.84-.76 3.654-1.36 5.414-.026.106-.026.186-.04.293-1.04.253-2.133.413-3.253.413-1.133 0-2.213-.16-3.267-.413-.013-.107 0-.187-.026-.293a39.682 39.682 0 01-1.36-5.414c1.546.174 3.093.294 4.653.294 1.56 0 3.12-.12 4.653-.294zm.365-2.195c-3.335.42-6.7.42-10.035 0a40.032 40.032 0 010-10.036c3.334-.42 6.7-.42 10.035 0 .42 3.335.42 6.7 0 10.036z" fill="#EA3C12"/></svg>