<svg width="32" height="32" fill="none" xmlns="http://www.w3.org/2000/svg"><path opacity=".4" d="M25.334 12a9.29 9.29 0 01-1.56 5.186 9.314 9.314 0 01-6.374 4.027c-.453.08-.92.12-1.4.12-.48 0-.946-.04-1.4-.12a9.314 9.314 0 01-6.373-4.027A9.29 9.29 0 016.667 12 9.326 9.326 0 0116 2.666 9.327 9.327 0 0125.334 12z" fill="#EA3C12"/><path d="M28.334 24.626l-2.2.52a1.31 1.31 0 00-.987.987l-.467 1.96c-.253 1.067-1.613 1.387-2.32.547L16 21.333l-6.36 7.32c-.706.84-2.066.52-2.32-.547l-.466-1.96a1.328 1.328 0 00-.987-.986l-2.2-.52c-1.013-.24-1.373-1.507-.64-2.24l5.2-5.2a9.314 9.314 0 006.373 4.026c.454.08.92.12 1.4.12.48 0 .947-.04 1.4-.12a9.314 9.314 0 006.374-4.026l5.2 5.2c.733.72.373 1.986-.64 2.226zM16.774 7.973l.786 1.573a.966.966 0 00.64.467l1.427.24c.907.147 1.12.813.467 1.467l-1.107 1.106a.945.945 0 00-.227.814l.32 1.373c.254 1.08-.32 1.507-1.28.933l-1.333-.786a.935.935 0 00-.88 0l-1.333.786c-.96.56-1.534.147-1.28-.933l.32-1.373c.053-.254-.04-.627-.227-.814L11.96 11.72c-.653-.654-.44-1.307.467-1.467l1.427-.24c.24-.04.52-.253.626-.467l.787-1.573c.387-.853 1.08-.853 1.507 0z" fill="#EA3C12"/></svg>