<svg width="32" height="32" fill="none" xmlns="http://www.w3.org/2000/svg"><path d="M13.28 18.72v-1.48c0-.573-.427-.853-.947-.626l-6.68 2.88c-1.054.453-1.907-.107-1.907-1.24v-1.76c0-.907.68-1.96 1.52-2.307l7.6-3.267c.213-.106.4-.386.4-.626v-4.08c0-1.28.947-2.814 2.08-3.4.4-.2.88-.2 1.28 0C17.773 3.4 18.72 4.92 18.72 6.2v4.08c0 .24.187.52.4.627l1.387.587-7.227 7.226z" fill="#EA3C12"/><path opacity=".4" d="M28.253 16.493v1.76c0 1.134-.853 1.694-1.906 1.24l-6.68-2.88c-.534-.213-.947.053-.947.627v3.88c0 .306.173.746.4.96l3.093 3.107c.32.32.467.96.32 1.4l-.6 1.813a1.363 1.363 0 01-1.893.787l-3.173-2.667c-.48-.413-1.267-.413-1.747 0l-3.173 2.666c-.734.374-1.627 0-1.867-.786l-.6-1.813c-.147-.454 0-1.08.32-1.4l3.093-3.107c.214-.213.387-.653.387-.96v-2.4l7.227-7.227 6.226 2.68c.84.36 1.52 1.413 1.52 2.32z" fill="#EA3C12"/></svg>