<svg width="32" height="32" fill="none" xmlns="http://www.w3.org/2000/svg"><path opacity=".4" d="M13.32 23.973c5.884 0 10.654-4.77 10.654-10.653 0-5.884-4.77-10.654-10.654-10.654-5.883 0-10.653 4.77-10.653 10.654 0 5.883 4.77 10.653 10.653 10.653z" fill="#EA3C12"/><path d="M29.293 21.32c0 4.4-3.573 7.973-7.973 7.973a7.96 7.96 0 01-6.547-3.426c5.814-.654 10.44-5.28 11.094-11.094a7.96 7.96 0 013.426 6.547zm-14.026-8.373l-3.2-1.12c-.32-.107-.387-.133-.387-.6 0-.347.24-.627.547-.627h2c.427 0 .773.387.773.867 0 .546.454 1 1 1 .547 0 1-.454 1-1 0-1.533-1.186-2.787-2.666-2.853v-.067c0-.547-.454-1-1-1-.547 0-1 .44-1 1v.067h-.12c-1.4 0-2.547 1.173-2.547 2.626 0 1.267.56 2.08 1.72 2.48l3.213 1.12c.32.107.387.133.387.6 0 .347-.24.627-.547.627h-2c-.426 0-.773-.387-.773-.867 0-.546-.453-1-1-1-.547 0-1 .454-1 1 0 1.534 1.187 2.787 2.667 2.854v.08c0 .546.453 1 1 1 .546 0 1-.454 1-1v-.067h.12c1.4 0 2.546-1.174 2.546-2.627 0-1.266-.573-2.08-1.733-2.493z" fill="#EA3C12"/></svg>