<svg width="24" height="24" fill="none" xmlns="http://www.w3.org/2000/svg"><path d="M16.75 3.56V2c0-.41-.34-.75-.75-.75s-.75.34-.75.75v1.5h-6.5V2c0-.41-.34-.75-.75-.75s-.75.34-.75.75v1.56c-2.7.25-4.01 1.86-4.21 4.25-.02.29.22.53.5.53h16.92c.29 0 .53-.25.5-.53-.2-2.39-1.51-4-4.21-4.25z" fill="#EA3C12"/><path opacity=".4" d="M21 10.84v1.74c0 .61-.54 1.08-1.14.98-.28-.04-.57-.07-.86-.07a5.51 5.51 0 00-5.5 5.5c0 .46.18 1.1.37 1.68a.998.998 0 01-.95 1.32H8c-3.5 0-5-2-5-5v-6.16c0-.55.45-1 1-1h16c.55.01 1 .46 1 1.01z" fill="#EA3C12"/><path d="M8.5 15c-.26 0-.52-.11-.71-.29-.18-.19-.29-.45-.29-.71 0-.26.11-.52.29-.71.23-.23.58-.34.91-.27.06.01.12.03.18.06.06.02.12.05.18.09l.15.12c.18.19.29.45.29.71 0 .26-.11.52-.29.71l-.15.12c-.06.04-.12.07-.18.09-.06.03-.12.05-.18.06-.07.01-.14.02-.2.02zm3.5 0c-.26 0-.52-.11-.71-.29-.18-.19-.29-.45-.29-.71 0-.26.11-.52.29-.71.38-.37 1.05-.37 1.42 0 .18.19.29.45.29.71 0 .26-.11.52-.29.71-.19.18-.45.29-.71.29zm-3.5 3.5c-.26 0-.52-.11-.71-.29-.18-.19-.29-.45-.29-.71 0-.26.11-.52.29-.71.1-.09.2-.16.33-.21.37-.16.81-.07 1.09.21.18.19.29.45.29.71 0 .26-.11.52-.29.71-.19.18-.45.29-.71.29zm13.593-2.033A3.964 3.964 0 0019 15c-.942 0-1.813.329-2.498.88A3.954 3.954 0 0015 19c0 1.253.569 2.364 1.467 3.093A3.956 3.956 0 0019 23a4.026 4.026 0 002.64-.996A4.017 4.017 0 0023 19c0-.96-.338-1.849-.907-2.533zm-2.177 2.782a.668.668 0 01-.32.569l-1.254.746a.67.67 0 01-.915-.222.666.666 0 01.23-.915l.925-.552v-1.12c0-.364.302-.666.667-.666.364 0 .667.302.667.667v1.493z" fill="#EA3C12"/></svg>