<svg width="18" height="18" fill="none" xmlns="http://www.w3.org/2000/svg"><path d="M14.812 11.557l-.637-.637a3.15 3.15 0 00.525-1.74A3.182 3.182 0 0011.52 6a3.182 3.182 0 00-3.18 3.18 3.182 3.182 0 003.18 3.18c.645 0 1.245-.195 1.74-.525l.637.637a.641.641 0 00.458.188.64.64 0 00.457-.188.657.657 0 000-.915z" fill="#EA3C12"/><path opacity=".4" d="M4.058 1.5h9.877c.825 0 1.5.682 1.5 1.515V4.68c0 .607-.375 1.365-.75 1.74L11.468 9.3c-.45.382-.75 1.14-.75 1.74v3.255c0 .457-.3 1.057-.675 1.29l-1.05.682c-.975.608-2.318-.075-2.318-1.29v-4.012c0-.533-.3-1.215-.6-1.59l-2.842-3.03c-.375-.383-.675-1.058-.675-1.515V3.09c.007-.907.682-1.59 1.5-1.59z" fill="#EA3C12"/></svg>