<svg width="48" height="48" fill="none" xmlns="http://www.w3.org/2000/svg"><path d="M18.224 16.524L11.94 31.516h-4.1L4.748 19.55c-.188-.736-.35-1.006-.922-1.316-.932-.506-2.472-.98-3.826-1.276l.092-.434h6.6a1.808 1.808 0 011.788 1.528l1.634 8.676 4.036-10.204h4.074zM34.29 26.622c.016-3.958-5.472-4.176-5.434-5.944.012-.538.524-1.11 1.644-1.256a7.321 7.321 0 013.826.672l.68-3.18a10.416 10.416 0 00-3.628-.666c-3.834 0-6.532 2.04-6.556 4.958-.024 2.158 1.926 3.36 3.396 4.08 1.512.734 2.02 1.206 2.012 1.862-.01 1.008-1.204 1.45-2.32 1.468-1.95.03-3.08-.526-3.984-.946l-.702 3.284c.906.416 2.578.78 4.312.796 4.074 0 6.74-2.012 6.754-5.128zm10.122 4.894H48l-3.13-14.992h-3.312a1.767 1.767 0 00-1.652 1.1l-5.818 13.892h4.072l.81-2.24h4.976l.466 2.24zm-4.326-5.312l2.04-5.63 1.176 5.63h-3.216zm-16.32-9.68L20.56 31.516h-3.88l3.21-14.992h3.876z" fill="#1A1F71"/></svg>